<svg width="136" height="12" viewBox="0 0 136 12" fill="none" xmlns="http://www.w3.org/2000/svg">
<path d="M11.9713 0.407227H10.5332V11.4017H17.655V10.5412H11.9713V0.407227Z" fill="white"/>
<path d="M20.1758 11.4017H27.2975V10.5412H21.6138V7.56386H26.4895V6.84001H21.6138V1.26766H27.2975V0.407227H20.1758V11.4017Z" fill="white"/>
<path d="M36.0078 9.85836H35.9394L30.8856 0.407227H29.8174V11.4017H30.5022V2.44222H30.5706L35.4463 11.5929H35.7202L40.7054 2.49686H40.7602V11.4017H42.1983V0.407227H41.1163L36.0078 9.85836Z" fill="white"/>
<path d="M46.1426 11.4017H53.2643V10.5412H47.5669V7.91896H52.4563V7.19511H47.5669V1.26766H53.2643V0.407227H46.1426V11.4017Z" fill="white"/>
<path d="M64.659 8.82017H64.6042L55.8527 0.21582H55.7842V11.4015H56.51V3.00199H56.5648L65.3164 11.5927H65.3849V0.407028H64.659V8.82017Z" fill="white"/>
<path d="M67.7544 1.26766H71.9727V11.4017H73.4107V1.26766H77.629V0.407227H67.7544V1.26766Z" fill="white"/>
<path d="M93.7078 5.21474H87.1065V0.407227H85.6685V11.4017H87.1065V5.9386H93.7078V11.4017H95.1322V0.407227H93.7078V5.21474Z" fill="white"/>
<path d="M108.54 2.18253C108.033 1.62256 107.403 1.14454 106.622 0.775786C105.856 0.407028 104.938 0.21582 103.883 0.21582C102.842 0.21582 101.952 0.393371 101.213 0.762129C100.459 1.13089 99.8568 1.59525 99.3638 2.15521C98.8844 2.71518 98.5283 3.32978 98.2955 3.999C98.0764 4.66823 97.9531 5.31014 97.9531 5.89743C97.9531 6.48471 98.0627 7.11296 98.2955 7.76853C98.5283 8.43776 98.8707 9.05235 99.3638 9.61232C99.8568 10.1723 100.459 10.6503 101.213 11.0191C101.952 11.3878 102.856 11.579 103.883 11.579C104.582 11.579 105.226 11.4971 105.801 11.3195C106.376 11.142 106.883 10.9098 107.348 10.623C107.8 10.3362 108.197 9.99474 108.54 9.61232C108.882 9.22991 109.156 8.82017 109.362 8.39679C109.581 7.9734 109.731 7.55001 109.841 7.11296C109.951 6.67591 110.005 6.27984 110.005 5.88377C110.005 5.29649 109.882 4.66823 109.649 3.999C109.416 3.37075 109.047 2.75615 108.54 2.18253ZM108.115 7.93242C107.869 8.54702 107.54 9.06601 107.129 9.51672C106.718 9.95376 106.239 10.2952 105.677 10.541C105.13 10.7869 104.541 10.9098 103.924 10.9098C103.294 10.9098 102.706 10.7869 102.171 10.541C101.637 10.2952 101.172 9.95376 100.774 9.51672C100.377 9.07967 100.076 8.54702 99.8431 7.93242C99.6103 7.31783 99.5007 6.6486 99.5007 5.91108C99.5007 5.17357 99.6103 4.50434 99.8431 3.88974C100.062 3.27515 100.377 2.75615 100.774 2.30545C101.172 1.8684 101.637 1.52696 102.171 1.28112C102.706 1.03528 103.294 0.912363 103.924 0.912363C104.541 0.912363 105.13 1.03528 105.677 1.28112C106.225 1.52696 106.718 1.8684 107.129 2.30545C107.54 2.7425 107.869 3.27515 108.115 3.88974C108.362 4.50434 108.471 5.17357 108.471 5.91108C108.485 6.6486 108.362 7.31783 108.115 7.93242Z" fill="white"/>
<path d="M119.059 9.85836H118.99L113.936 0.407227H112.868V11.4017H113.553V2.44222H113.621L118.483 11.5929H118.771L123.743 2.49686H123.811V11.4017H125.249V0.407227H124.153L119.059 9.85836Z" fill="white"/>
<path d="M0.0839844 11.4017H8.01377V10.5412H1.52203V9.51692C1.9192 8.57453 2.86421 7.91896 3.94616 7.91896H7.43856V7.20876H3.94616C2.98747 7.20876 2.13833 7.61849 1.52203 8.26041V6.78537V4.72306V1.26766H8.01377V0.407227H0.0839844V11.4017Z" fill="white"/>
<path d="M129.508 4.69575V1.26766H136V0.407227H128.07V11.4017H136V10.5412H129.508V9.51692C129.906 8.57453 130.851 7.91896 131.933 7.91896H135.425V7.20876H131.933C130.974 7.20876 130.111 7.61849 129.508 8.26041V6.78537V4.69575Z" fill="white"/>
</svg>
